<?xml version="1.0" standalone="no"?>
<!DOCTYPE svg PUBLIC "-//W3C//DTD SVG 20010904//EN"
 "https://www.w3.org/TR/2001/REC-SVG-20010904/DTD/svg10.dtd">
<svg version="1.0" xmlns="https://www.w3.org/2000/svg"
 width="16.000000pt" height="16.000000pt" viewBox="0 0 16.000000 16.000000"
 preserveAspectRatio="xMidYMid meet">
<metadata>
Created by potrace 1.11, written by Peter Selinger 2001-2013
</metadata>
<g transform="translate(0.000000,16.000000) scale(0.018391,-0.018391)"
fill="#000000" stroke="none">
<path d="M330 847 c-211 -60 -344 -260 -313 -469 6 -40 16 -85 21 -100 l11
-27 390 0 390 1 16 49 c20 58 26 165 13 223 -14 68 -65 160 -115 210 -27 26
-80 63 -120 83 -63 31 -83 36 -160 39 -53 2 -106 -1 -133 -9z m309 -142 c51
-34 114 -160 113 -222 0 -49 -18 -93 -36 -93 -21 0 -57 32 -98 88 -52 70 -79
95 -124 117 -113 54 -253 -1 -320 -125 l-24 -45 6 44 c6 41 5 44 -15 38 -17
-4 -19 -2 -11 13 6 10 18 21 29 25 10 3 31 24 45 45 33 50 93 94 157 115 62
21 179 17 227 -7 34 -18 42 -10 16 16 -23 24 -5 19 35 -9z"/>
<path d="M690 506 c0 -8 4 -17 9 -20 11 -7 33 18 24 27 -12 12 -33 7 -33 -7z"/>
<path d="M81 230 c-19 -5 -19 -6 -3 -28 19 -24 9 -24 527 -22 172 0 181 1 193
21 7 12 11 23 8 26 -6 7 -699 10 -725 3z"/>
<path d="M148 120 l32 -30 258 0 257 1 35 29 35 29 -325 0 -325 0 33 -29z"/>
<path d="M260 45 c0 -8 102 -34 149 -38 54 -5 137 8 182 28 32 13 21 14 -148
15 -101 0 -183 -2 -183 -5z"/>
</g>
</svg>
